<svg width="512" height="512" viewBox="0 0 512 512" fill="none" xmlns="http://www.w3.org/2000/svg">
  <defs>
    <linearGradient id="bg" x1="52" y1="58" x2="460" y2="452" gradientUnits="userSpaceOnUse">
      <stop stop-color="#0F766E"/>
      <stop offset="1" stop-color="#1D4ED8"/>
    </linearGradient>
  </defs>
  <rect x="32" y="32" width="448" height="448" rx="104" fill="url(#bg)"/>
  <rect x="104" y="98" width="304" height="316" rx="40" fill="#FFFFFF" fill-opacity="0.96"/>

  <rect x="134" y="128" width="92" height="92" rx="14" fill="#0F172A"/>
  <rect x="146" y="140" width="30" height="30" fill="#FFFFFF"/>
  <rect x="182" y="140" width="30" height="30" fill="#0F172A"/>
  <rect x="146" y="176" width="30" height="30" fill="#0F172A"/>
  <rect x="182" y="176" width="30" height="30" fill="#FFFFFF"/>

  <rect x="286" y="128" width="92" height="92" rx="14" fill="#0F172A"/>
  <rect x="298" y="140" width="30" height="30" fill="#FFFFFF"/>
  <rect x="334" y="140" width="30" height="30" fill="#0F172A"/>
  <rect x="298" y="176" width="30" height="30" fill="#0F172A"/>
  <rect x="334" y="176" width="30" height="30" fill="#FFFFFF"/>

  <rect x="134" y="274" width="244" height="100" rx="18" fill="#E2E8F0"/>
  <rect x="154" y="294" width="134" height="12" rx="6" fill="#0F766E" fill-opacity="0.55"/>
  <rect x="154" y="316" width="102" height="12" rx="6" fill="#0F766E" fill-opacity="0.35"/>
  <rect x="154" y="338" width="90" height="12" rx="6" fill="#0F766E" fill-opacity="0.35"/>

  <rect x="298" y="292" width="60" height="60" rx="10" fill="#0F172A"/>
  <rect x="306" y="300" width="18" height="18" fill="#FFFFFF"/>
  <rect x="328" y="300" width="18" height="18" fill="#0F172A"/>
  <rect x="306" y="322" width="18" height="18" fill="#0F172A"/>
  <rect x="328" y="322" width="18" height="18" fill="#FFFFFF"/>
</svg>
